<svg width="40" height="40" viewBox="0 0 40 40" fill="none" xmlns="http://www.w3.org/2000/svg">
<path d="M28.25 26.5V27.1213L28.6893 27.5607L31.0037 29.875H8.99632L11.3107 27.5607L11.75 27.1213V26.5V18.375C11.75 13.8931 14.0753 10.4728 17.9083 9.56459L19.0625 9.29113V8.105V7C19.0625 6.47968 19.4797 6.0625 20 6.0625C20.5203 6.0625 20.9375 6.47968 20.9375 7V8.105V9.29017L22.0905 9.56432C25.9094 10.4723 28.25 13.9107 28.25 18.375V26.5ZM20.8958 34.5C20.633 34.6585 20.3262 34.75 20 34.75C19.6691 34.75 19.3605 34.6586 19.0973 34.5H20.8958Z" stroke="white" stroke-width="3"/>
</svg>
